<svg width="22" height="22" viewBox="0 0 22 22" fill="none" xmlns="http://www.w3.org/2000/svg">
<path d="M1.3335 2.66671C1.3335 1.93033 1.93046 1.33337 2.66683 1.33337H7.3335C8.06987 1.33337 8.66683 1.93033 8.66683 2.66671V7.33337C8.66683 8.06975 8.06987 8.66671 7.3335 8.66671H2.66683C1.93046 8.66671 1.3335 8.06975 1.3335 7.33337V2.66671Z" stroke="white" stroke-width="1.5" stroke-linecap="round" stroke-linejoin="round"/>
<path d="M1.3335 14.6667C1.3335 13.9303 1.93046 13.3334 2.66683 13.3334H7.3335C8.06987 13.3334 8.66683 13.9303 8.66683 14.6667V19.3334C8.66683 20.0698 8.06987 20.6667 7.3335 20.6667H2.66683C1.93046 20.6667 1.3335 20.0698 1.3335 19.3334V14.6667Z" stroke="white" stroke-width="1.5" stroke-linecap="round" stroke-linejoin="round"/>
<path d="M13.3335 2.66671C13.3335 1.93033 13.9304 1.33337 14.6668 1.33337H19.3335C20.0699 1.33337 20.6668 1.93033 20.6668 2.66671V7.33337C20.6668 8.06975 20.0699 8.66671 19.3335 8.66671H14.6668C13.9304 8.66671 13.3335 8.06975 13.3335 7.33337V2.66671Z" stroke="white" stroke-width="1.5" stroke-linecap="round" stroke-linejoin="round"/>
<path d="M13.3335 14.6667C13.3335 13.9303 13.9304 13.3334 14.6668 13.3334H19.3335C20.0699 13.3334 20.6668 13.9303 20.6668 14.6667V19.3334C20.6668 20.0698 20.0699 20.6667 19.3335 20.6667H14.6668C13.9304 20.6667 13.3335 20.0698 13.3335 19.3334V14.6667Z" stroke="white" stroke-width="1.5" stroke-linecap="round" stroke-linejoin="round"/>
</svg>
